<svg width="20" height="18" viewBox="0 0 20 18" fill="none" xmlns="http://www.w3.org/2000/svg">
<path d="M19 17.75C19.4142 17.75 19.75 17.4142 19.75 17C19.75 16.5858 19.4142 16.25 19 16.25V17.75ZM1 16.25C0.585786 16.25 0.25 16.5858 0.25 17C0.25 17.4142 0.585786 17.75 1 17.75V16.25ZM1.25 12C1.25 12.4142 1.58579 12.75 2 12.75C2.41421 12.75 2.75 12.4142 2.75 12H1.25ZM2.75 10C2.75 9.58579 2.41421 9.25 2 9.25C1.58579 9.25 1.25 9.58579 1.25 10H2.75ZM9.25 8C9.25 8.41421 9.58579 8.75 10 8.75C10.4142 8.75 10.75 8.41421 10.75 8H9.25ZM10.75 5C10.75 4.58579 10.4142 4.25 10 4.25C9.58579 4.25 9.25 4.58579 9.25 5H10.75ZM5.25 12C5.25 12.4142 5.58579 12.75 6 12.75C6.41421 12.75 6.75 12.4142 6.75 12H5.25ZM6.75 6C6.75 5.58579 6.41421 5.25 6 5.25C5.58579 5.25 5.25 5.58579 5.25 6H6.75ZM13.25 9C13.25 9.41421 13.5858 9.75 14 9.75C14.4142 9.75 14.75 9.41421 14.75 9H13.25ZM14.75 7C14.75 6.58579 14.4142 6.25 14 6.25C13.5858 6.25 13.25 6.58579 13.25 7H14.75ZM17.25 11C17.25 11.4142 17.5858 11.75 18 11.75C18.4142 11.75 18.75 11.4142 18.75 11H17.25ZM18.75 1C18.75 0.585786 18.4142 0.25 18 0.25C17.5858 0.25 17.25 0.585786 17.25 1H18.75ZM19 17V16.25H1V17V17.75H19V17ZM2 12H2.75V10H2H1.25V12H2ZM10 8H10.75V5H10H9.25V8H10ZM6 12H6.75V6H6H5.25V12H6ZM14 9H14.75V7H14H13.25V9H14ZM18 11H18.75V1H18H17.25V11H18Z" fill="#5F5F5F"/>
</svg>
