<svg width="12" height="18" viewBox="0 0 12 18" fill="none" xmlns="http://www.w3.org/2000/svg">
<path d="M9 1C9.292 1 9.43801 1 9.57805 1.04183C10.192 1.22522 10.4775 1.93111 10.1637 2.48976C10.0921 2.61719 9.87437 2.82779 9.43887 3.249C7.93501 4.70352 7 6.74257 7 9C7 11.2574 7.93501 13.2965 9.43887 14.751C9.87437 15.1722 10.0921 15.3828 10.1637 15.5102C10.4775 16.0689 10.192 16.7748 9.57805 16.9582C9.43801 17 9.292 17 9 17C4.58172 17 1 13.4183 1 9C1 4.58172 4.58172 1 9 1Z" stroke="#5F5F5F" stroke-width="1.5"/>
</svg>
