<svg width="22" height="13" viewBox="0 0 22 13" fill="none" xmlns="http://www.w3.org/2000/svg">
<path fill-rule="evenodd" clip-rule="evenodd" d="M21.7071 3.2758C21.4142 2.98291 20.9428 2.98291 20 2.98291L19.6878 2.98291L19.6878 9.91946L20 9.91946C20.9428 9.91946 21.4142 9.91946 21.7071 9.62657C22 9.33368 22 8.86227 22 7.91946L22 4.98291C22 4.0401 22 3.5687 21.7071 3.2758Z" fill="#B7B7B7"/>
<rect x="17.7791" y="1.25" width="10.7487" height="16.5292" rx="1.75" transform="rotate(90 17.7791 1.25)" stroke="#B7B7B7" stroke-width="1.5"/>
<path d="M9.16752 9.03033V8.29086C9.16752 8.18237 9.16752 8.12812 9.15096 8.08492C9.12558 8.01867 9.07323 7.96632 9.00698 7.94093C8.96378 7.92438 8.90953 7.92438 8.80103 7.92438C8.08689 7.92438 7.72982 7.92438 7.50878 7.80612C7.16874 7.6242 6.96362 7.26296 6.9816 6.87774C6.99329 6.62733 7.17623 6.32068 7.54212 5.70739L8.23813 4.54075C8.61296 3.91245 8.80038 3.5983 8.98395 3.6489C9.16752 3.6995 9.16752 4.0653 9.16752 4.79692V5.53639C9.16752 5.64488 9.16752 5.69913 9.18407 5.74233C9.20946 5.80858 9.26181 5.86093 9.32806 5.88632C9.37126 5.90287 9.42551 5.90287 9.534 5.90287C10.2481 5.90287 10.6052 5.90287 10.8263 6.02113C11.1663 6.20305 11.3714 6.56428 11.3534 6.9495C11.3417 7.19992 11.1588 7.50657 10.7929 8.11986L10.0969 9.2865C9.72207 9.9148 9.53466 10.2289 9.35109 10.1783C9.16752 10.1277 9.16752 9.76194 9.16752 9.03033Z" fill="#B7B7B7"/>
</svg>
