<svg width="13" height="14" viewBox="0 0 13 14" fill="none" xmlns="http://www.w3.org/2000/svg">
<path d="M9.8 5.23529V4.17647C9.8 2.42215 8.32254 1 6.5 1C4.67746 1 3.2 2.42215 3.2 4.17647V5.23529M7.96667 9.11765C7.96667 9.89734 7.31002 10.5294 6.5 10.5294C5.68998 10.5294 5.03333 9.89734 5.03333 9.11765C5.03333 8.33795 5.68998 7.70588 6.5 7.70588C7.31002 7.70588 7.96667 8.33795 7.96667 9.11765ZM5.4 13H7.6C9.67418 13 10.7113 13 11.3556 12.3798C12 11.7595 12 10.7612 12 8.76471V8.05882C12 6.7278 12 6.06229 11.5704 5.64879C11.1408 5.23529 10.4495 5.23529 9.06667 5.23529H3.93333C2.55055 5.23529 1.85915 5.23529 1.42958 5.64879C1 6.06229 1 6.7278 1 8.05882V8.76471C1 10.7612 1 11.7595 1.64437 12.3798C2.28873 13 3.32582 13 5.4 13Z" stroke="#B7B7B7" stroke-linecap="round"/>
</svg>
