<svg width="27" height="18" viewBox="0 0 27 18" fill="none" xmlns="http://www.w3.org/2000/svg">
<path fill-rule="evenodd" clip-rule="evenodd" d="M26.0194 4.29289C25.7265 4 25.2551 4 24.3123 4L24.0001 4L24.0001 14L24.3123 14C25.2551 14 25.7265 14 26.0194 13.7071C26.3123 13.4142 26.3123 12.9428 26.3123 12L26.3123 6C26.3123 5.05719 26.3123 4.58579 26.0194 4.29289Z" fill="#B7B7B7"/>
<rect x="21.75" y="1.25" width="15.5" height="20.5" rx="1.75" transform="rotate(90 21.75 1.25)" stroke="#B7B7B7" stroke-width="1.5"/>
<path d="M10.5 10.5429H10.3244C8.83934 10.5429 8.0968 10.5429 7.80533 10.0584C7.51386 9.57387 7.86174 8.91787 8.5575 7.60585L10.0583 4.77584C10.4332 4.06879 10.6207 3.71526 10.8103 3.76244C11 3.80961 11 4.20977 11 5.01009V6.95714C11 7.19284 11 7.3107 11.0732 7.38392C11.1464 7.45714 11.2643 7.45714 11.5 7.45714H11.6756C13.1607 7.45714 13.9032 7.45714 14.1947 7.94163C14.4861 8.42613 14.1383 9.08213 13.4425 10.3941L11.9417 13.2242C11.5668 13.9312 11.3793 14.2847 11.1897 14.2376C11 14.1904 11 13.7902 11 12.9899V11.0429C11 10.8072 11 10.6893 10.9268 10.6161C10.8536 10.5429 10.7357 10.5429 10.5 10.5429Z" fill="#B7B7B7"/>
</svg>
