<svg width="22" height="22" viewBox="0 0 22 22" fill="none" xmlns="http://www.w3.org/2000/svg">
<path fill-rule="evenodd" clip-rule="evenodd" d="M12.9838 1.54161C13.0711 1.71093 13.0928 1.92777 13.1361 2.36144C13.2182 3.1823 13.2593 3.59274 13.4311 3.81793C13.649 4.10358 14.0034 4.25038 14.3595 4.20248C14.6402 4.16472 14.9594 3.90352 15.5979 3.38113C15.9352 3.10515 16.1038 2.96716 16.2853 2.90918C16.5158 2.83555 16.7652 2.84798 16.9872 2.94419C17.162 3.01994 17.3161 3.17402 17.6243 3.4822L18.5178 4.37567C18.8259 4.68385 18.98 4.83794 19.0558 5.01275C19.152 5.23478 19.1644 5.48415 19.0908 5.71464C19.0328 5.89612 18.8948 6.06478 18.6188 6.4021C18.0964 7.0406 17.8352 7.35984 17.7975 7.64056C17.7496 7.99662 17.8964 8.35102 18.182 8.56893C18.4072 8.74072 18.8176 8.78176 19.6385 8.86385C20.0722 8.90722 20.2891 8.92891 20.4584 9.01624C20.6734 9.12716 20.841 9.31228 20.9299 9.53729C21 9.71447 21 9.93239 21 10.3682V11.6319C21 12.0676 21 12.2855 20.93 12.4626C20.841 12.6877 20.6734 12.8729 20.4583 12.9838C20.289 13.0711 20.0722 13.0928 19.6386 13.1361C18.818 13.2182 18.4077 13.2592 18.1825 13.4309C17.8967 13.6489 17.7499 14.0034 17.7979 14.3596C17.8357 14.6402 18.0968 14.9593 18.619 15.5976C18.8949 15.9348 19.0328 16.1034 19.0908 16.2848C19.1645 16.5154 19.152 16.7648 19.0558 16.9869C18.98 17.1617 18.826 17.3157 18.5179 17.6238L17.6243 18.5174C17.3162 18.8255 17.1621 18.9796 16.9873 19.0554C16.7652 19.1516 16.5159 19.164 16.2854 19.0904C16.1039 19.0324 15.9352 18.8944 15.5979 18.6184C14.9594 18.096 14.6402 17.8348 14.3595 17.7971C14.0034 17.7492 13.649 17.896 13.4311 18.1816C13.2593 18.4068 13.2183 18.8173 13.1362 19.6383C13.0928 20.0722 13.0711 20.2891 12.9837 20.4585C12.8728 20.6735 12.6877 20.8409 12.4628 20.9299C12.2856 21 12.0676 21 11.6316 21H10.3682C9.93239 21 9.71447 21 9.53729 20.9299C9.31228 20.841 9.12716 20.6734 9.01624 20.4584C8.92891 20.2891 8.90722 20.0722 8.86385 19.6385C8.78176 18.8176 8.74072 18.4072 8.56892 18.182C8.35101 17.8964 7.99663 17.7496 7.64057 17.7975C7.35985 17.8352 7.04059 18.0964 6.40208 18.6189C6.06475 18.8949 5.89607 19.0329 5.71458 19.0908C5.4841 19.1645 5.23474 19.152 5.01272 19.0558C4.8379 18.9801 4.6838 18.826 4.37561 18.5178L3.48217 17.6243C3.17398 17.3162 3.01988 17.1621 2.94414 16.9873C2.84794 16.7652 2.8355 16.5159 2.90913 16.2854C2.96711 16.1039 3.10511 15.9352 3.3811 15.5979C3.90351 14.9594 4.16471 14.6402 4.20247 14.3594C4.25037 14.0034 4.10357 13.649 3.81792 13.4311C3.59273 13.2593 3.1823 13.2182 2.36143 13.1361C1.92776 13.0928 1.71093 13.0711 1.54161 12.9838C1.32656 12.8728 1.15902 12.6877 1.07005 12.4627C1 12.2855 1 12.0676 1 11.6318V10.3683C1 9.9324 1 9.71442 1.07008 9.53721C1.15905 9.31226 1.32654 9.12719 1.54152 9.01628C1.71088 8.92891 1.92777 8.90722 2.36155 8.86384C3.18264 8.78173 3.59319 8.74068 3.81842 8.56881C4.10395 8.35092 4.2507 7.99664 4.20287 7.64066C4.16514 7.35987 3.90385 7.04052 3.38128 6.40182C3.10516 6.06435 2.96711 5.89561 2.90914 5.71405C2.83557 5.48364 2.848 5.23438 2.94413 5.01243C3.01988 4.83754 3.17403 4.68339 3.48233 4.37509L4.37565 3.48177C4.68385 3.17357 4.83795 3.01947 5.01277 2.94373C5.23478 2.84753 5.48414 2.8351 5.71463 2.90872C5.89612 2.9667 6.06481 3.10472 6.4022 3.38076C7.04061 3.9031 7.35982 4.16427 7.64044 4.20207C7.99661 4.25003 8.35113 4.10319 8.56907 3.81742C8.74077 3.59227 8.78181 3.18195 8.86387 2.36131C8.90722 1.92776 8.9289 1.71098 9.01619 1.5417C9.12712 1.32658 9.31231 1.15898 9.53741 1.07001C9.71453 1 9.93238 1 10.3681 1H11.6318C12.0676 1 12.2855 1 12.4627 1.07005C12.6877 1.15902 12.8728 1.32656 12.9838 1.54161ZM11 15C13.2091 15 15 13.2091 15 11C15 8.79086 13.2091 7 11 7C8.79086 7 7 8.79086 7 11C7 13.2091 8.79086 15 11 15Z" stroke="#5F5F5F" stroke-width="1.5"/>
</svg>
