<svg width="20" height="20" viewBox="0 0 20 20" fill="none" xmlns="http://www.w3.org/2000/svg">
<path d="M9.29289 7.70711L9.82322 8.23744L9.82322 8.23744L9.29289 7.70711ZM4.46967 11.4697C4.17678 11.7626 4.17678 12.2374 4.46967 12.5303C4.76256 12.8232 5.23744 12.8232 5.53033 12.5303L4.46967 11.4697ZM19.5303 4.53033C19.8232 4.23744 19.8232 3.76256 19.5303 3.46967C19.2374 3.17678 18.7626 3.17678 18.4697 3.46967L19.5303 4.53033ZM13.7071 9.29289L14.2374 9.82322L14.2374 9.82322L13.7071 9.29289ZM12.2929 9.29289L12.8232 8.76256L12.8232 8.76256L12.2929 9.29289ZM10.7071 7.70711L11.2374 7.17678L11.2374 7.17678L10.7071 7.70711ZM19 19.75C19.4142 19.75 19.75 19.4142 19.75 19C19.75 18.5858 19.4142 18.25 19 18.25V19.75ZM1.75 1C1.75 0.585786 1.41421 0.25 1 0.25C0.585786 0.25 0.25 0.585786 0.25 1H1.75ZM2.09202 18.782L2.43251 18.1138L2.43251 18.1138L2.09202 18.782ZM1.21799 17.908L0.549732 18.2485L0.549732 18.2485L1.21799 17.908ZM9.29289 7.70711L8.76256 7.17678L4.46967 11.4697L5 12L5.53033 12.5303L9.82322 8.23744L9.29289 7.70711ZM19 4L18.4697 3.46967L13.1768 8.76256L13.7071 9.29289L14.2374 9.82322L19.5303 4.53033L19 4ZM12.2929 9.29289L12.8232 8.76256L11.2374 7.17678L10.7071 7.70711L10.1768 8.23744L11.7626 9.82322L12.2929 9.29289ZM13.7071 9.29289L13.1768 8.76256C13.0791 8.86019 12.9209 8.86019 12.8232 8.76256L12.2929 9.29289L11.7626 9.82322C12.446 10.5066 13.554 10.5066 14.2374 9.82322L13.7071 9.29289ZM9.29289 7.70711L9.82322 8.23744C9.92085 8.13981 10.0791 8.13981 10.1768 8.23744L10.7071 7.70711L11.2374 7.17678C10.554 6.49336 9.44598 6.49336 8.76256 7.17678L9.29289 7.70711ZM19 19V18.25H4.2V19V19.75H19V19ZM1 15.8H1.75V1H1H0.25V15.8H1ZM4.2 19V18.25C3.62757 18.25 3.24336 18.2494 2.94748 18.2252C2.66035 18.2018 2.52307 18.1599 2.43251 18.1138L2.09202 18.782L1.75153 19.4503C2.08879 19.6221 2.44545 19.6892 2.82533 19.7203C3.19646 19.7506 3.65232 19.75 4.2 19.75V19ZM1 15.8H0.25C0.25 16.3477 0.249417 16.8035 0.279739 17.1747C0.310777 17.5546 0.377888 17.9112 0.549732 18.2485L1.21799 17.908L1.88624 17.5675C1.8401 17.4769 1.79822 17.3396 1.77476 17.0525C1.75058 16.7566 1.75 16.3724 1.75 15.8H1ZM2.09202 18.782L2.43251 18.1138C2.19731 17.9939 2.00608 17.8027 1.88624 17.5675L1.21799 17.908L0.549732 18.2485C0.813384 18.7659 1.23408 19.1866 1.75153 19.4503L2.09202 18.782Z" fill="#5F5F5F"/>
</svg>
