<svg width="19" height="20" viewBox="0 0 19 20" fill="none" xmlns="http://www.w3.org/2000/svg">
<path d="M3.42521 8.23563L4.17062 8.31846L4.17062 8.31846L3.42521 8.23563ZM3.41876 8.29326L4.16387 8.37876L3.41876 8.29326ZM2.31582 11.5222L2.95894 11.9081L2.95894 11.9081L2.31582 11.5222ZM2.34561 11.4725L1.70111 11.0889L2.34561 11.4725ZM15.0331 8.23563L15.7785 8.15281L15.7785 8.15281L15.0331 8.23563ZM15.0396 8.29326L14.2945 8.37876L15.0396 8.29326ZM16.1425 11.5222L16.7856 11.1364L16.7856 11.1364L16.1425 11.5222ZM16.1127 11.4725L16.7572 11.0889L16.1127 11.4725ZM1.35351 14.7668L1.8349 14.1917L1.8349 14.1917L1.35351 14.7668ZM1.73779 12.4856L1.09467 12.0998L1.09467 12.0998L1.73779 12.4856ZM1.00758 14.1559L0.266745 14.2727L1.00758 14.1559ZM17.1048 14.7668L16.6234 14.1917L16.6234 14.1917L17.1048 14.7668ZM16.7205 12.4856L16.0774 12.8715L16.0774 12.8715L16.7205 12.4856ZM17.4508 14.1559L18.1916 14.2727L17.4508 14.1559ZM14.7813 5.96942L14.0359 6.05224L14.0359 6.05224L14.7813 5.96942ZM5.97917 15C5.97917 14.5858 5.64338 14.25 5.22917 14.25C4.81496 14.25 4.47917 14.5858 4.47917 15H5.97917ZM13.9792 15C13.9792 14.5858 13.6434 14.25 13.2292 14.25C12.815 14.25 12.4792 14.5858 12.4792 15L13.9792 15ZM15.2969 15V14.25H3.1614V15V15.75H15.2969V15ZM14.7813 5.96942L14.0359 6.05224L14.2877 8.31846L15.0331 8.23563L15.7785 8.15281L15.5267 5.88659L14.7813 5.96942ZM3.42521 8.23563L4.17062 8.31846L4.42242 6.05224L3.67701 5.96942L2.9316 5.88659L2.6798 8.15281L3.42521 8.23563ZM1.73779 12.4856L2.38091 12.8715L2.95894 11.9081L2.31582 11.5222L1.6727 11.1364L1.09467 12.0998L1.73779 12.4856ZM16.1425 11.5222L15.4994 11.9081L16.0774 12.8715L16.7205 12.4856L17.3637 12.0998L16.7856 11.1364L16.1425 11.5222ZM3.42521 8.23563L2.6798 8.15281C2.67653 8.18222 2.6751 8.19511 2.67364 8.20775L3.41876 8.29326L4.16387 8.37876C4.16569 8.36282 4.16747 8.34683 4.17062 8.31846L3.42521 8.23563ZM2.31582 11.5222L2.95894 11.9081C2.97363 11.8836 2.98191 11.8698 2.99012 11.8561L2.34561 11.4725L1.70111 11.0889C1.6946 11.0999 1.68793 11.111 1.6727 11.1364L2.31582 11.5222ZM3.41876 8.29326L2.67364 8.20775C2.55679 9.2261 2.22532 10.2081 1.70111 11.0889L2.34561 11.4725L2.99012 11.8561C3.62278 10.793 4.02283 9.6078 4.16387 8.37876L3.41876 8.29326ZM15.0331 8.23563L14.2877 8.31846C14.2909 8.34683 14.2926 8.36282 14.2945 8.37876L15.0396 8.29326L15.7847 8.20775C15.7832 8.19511 15.7818 8.18222 15.7785 8.15281L15.0331 8.23563ZM16.1425 11.5222L16.7856 11.1364C16.7704 11.111 16.7637 11.0999 16.7572 11.0889L16.1127 11.4725L15.4682 11.8561C15.4764 11.8698 15.4847 11.8837 15.4994 11.9081L16.1425 11.5222ZM15.0396 8.29326L14.2945 8.37876C14.4355 9.6078 14.8356 10.793 15.4682 11.8561L16.1127 11.4725L16.7572 11.0889C16.233 10.2081 15.9016 9.2261 15.7847 8.20775L15.0396 8.29326ZM3.1614 15V14.25C2.63526 14.25 2.2979 14.2491 2.05466 14.2246C1.80709 14.1997 1.79735 14.1603 1.8349 14.1917L1.35351 14.7668L0.872115 15.3419C1.18824 15.6066 1.57267 15.6837 1.90451 15.7171C2.24069 15.7509 2.66799 15.75 3.1614 15.75V15ZM1.73779 12.4856L1.09467 12.0998C0.840813 12.5229 0.620191 12.8888 0.476229 13.1945C0.334125 13.4962 0.202493 13.8655 0.266745 14.2727L1.00758 14.1559L1.74841 14.039C1.75605 14.0873 1.72724 14.0587 1.83326 13.8336C1.93742 13.6124 2.11021 13.3227 2.38091 12.8715L1.73779 12.4856ZM1.35351 14.7668L1.8349 14.1917C1.78855 14.1529 1.75783 14.0987 1.74841 14.039L1.00758 14.1559L0.266745 14.2727C0.332675 14.6906 0.547731 15.0704 0.872115 15.3419L1.35351 14.7668ZM15.2969 15V15.75C15.7903 15.75 16.2176 15.7509 16.5538 15.7171C16.8857 15.6837 17.2701 15.6066 17.5862 15.3419L17.1048 14.7668L16.6234 14.1917C16.661 14.1603 16.6512 14.1997 16.4037 14.2246C16.1604 14.2491 15.8231 14.25 15.2969 14.25V15ZM16.7205 12.4856L16.0774 12.8715C16.3481 13.3227 16.5209 13.6124 16.6251 13.8336C16.7311 14.0587 16.7023 14.0873 16.7099 14.039L17.4508 14.1559L18.1916 14.2727C18.2558 13.8655 18.1242 13.4962 17.9821 13.1945C17.8381 12.8888 17.6175 12.5229 17.3637 12.0998L16.7205 12.4856ZM17.1048 14.7668L17.5862 15.3419C17.9106 15.0704 18.1257 14.6906 18.1916 14.2727L17.4508 14.1559L16.7099 14.039C16.7005 14.0987 16.6698 14.1529 16.6234 14.1917L17.1048 14.7668ZM9.22917 1V1.75C11.6935 1.75 13.7638 3.60297 14.0359 6.05224L14.7813 5.96942L15.5267 5.88659C15.1702 2.67767 12.4578 0.25 9.22917 0.25V1ZM9.22917 1V0.25C6.0005 0.25 3.28815 2.67767 2.9316 5.88659L3.67701 5.96942L4.42242 6.05224C4.69457 3.60297 6.76482 1.75 9.22917 1.75V1ZM5.22917 15H4.47917C4.47917 15.6238 4.60203 16.2415 4.84074 16.8177L5.53365 16.5307L6.22656 16.2437C6.06323 15.8494 5.97917 15.4268 5.97917 15H5.22917ZM5.53365 16.5307L4.84074 16.8177C5.07945 17.394 5.42933 17.9177 5.87041 18.3588L6.40074 17.8284L6.93107 17.2981C6.62928 16.9963 6.38989 16.638 6.22656 16.2437L5.53365 16.5307ZM6.40074 17.8284L5.87041 18.3588C6.31149 18.7998 6.83513 19.1497 7.41142 19.3884L7.69844 18.6955L7.98545 18.0026C7.59114 17.8393 7.23286 17.5999 6.93107 17.2981L6.40074 17.8284ZM7.69844 18.6955L7.41142 19.3884C7.98772 19.6271 8.60539 19.75 9.22917 19.75L9.22917 19L9.22917 18.25C8.80237 18.25 8.37976 18.1659 7.98545 18.0026L7.69844 18.6955ZM9.22917 19L9.22917 19.75C9.85295 19.75 10.4706 19.6271 11.0469 19.3884L10.7599 18.6955L10.4729 18.0026C10.0786 18.1659 9.65597 18.25 9.22917 18.25L9.22917 19ZM10.7599 18.6955L11.0469 19.3884C11.6232 19.1497 12.1468 18.7998 12.5879 18.3588L12.0576 17.8284L11.5273 17.2981C11.2255 17.5999 10.8672 17.8393 10.4729 18.0026L10.7599 18.6955ZM12.0576 17.8284L12.5879 18.3588C13.029 17.9177 13.3789 17.394 13.6176 16.8177L12.9247 16.5307L12.2318 16.2437C12.0685 16.638 11.8291 16.9963 11.5273 17.2981L12.0576 17.8284ZM12.9247 16.5307L13.6176 16.8177C13.8563 16.2414 13.9792 15.6238 13.9792 15L13.2292 15L12.4792 15C12.4792 15.4268 12.3951 15.8494 12.2318 16.2437L12.9247 16.5307Z" fill="#5F5F5F"/>
</svg>
