<svg width="21" height="20" viewBox="0 0 21 20" fill="none" xmlns="http://www.w3.org/2000/svg">
<path d="M10.4731 13.283V11.7684C10.4731 11.5495 10.4731 11.44 10.4093 11.3688C10.4032 11.3621 10.3968 11.3556 10.3901 11.3496C10.3188 11.2857 10.2094 11.2857 9.99044 11.2857C8.49807 11.2857 7.75188 11.2857 7.45616 10.8304C7.4293 10.789 7.40553 10.7457 7.38505 10.7008C7.15967 10.2069 7.56028 9.57736 8.3615 8.3183L9.55131 6.44859C9.92573 5.86022 10.1129 5.56604 10.293 5.61848C10.4731 5.67093 10.4731 6.01963 10.4731 6.71703V8.23158C10.4731 8.45051 10.4731 8.55997 10.537 8.6312C10.5431 8.63794 10.5495 8.64435 10.5562 8.6504C10.6275 8.71429 10.7369 8.71429 10.9558 8.71429C12.4482 8.71429 13.1944 8.71429 13.4901 9.16962C13.517 9.21099 13.5408 9.25429 13.5612 9.29916C13.7866 9.7931 13.386 10.4226 12.5848 11.6817L11.395 13.5514C11.0206 14.1398 10.8334 14.434 10.6532 14.3815C10.4731 14.3291 10.4731 13.9804 10.4731 13.283Z" fill="#5F5F5F"/>
<path fill-rule="evenodd" clip-rule="evenodd" d="M19.6996 9.00003C19.9048 9.00003 20.1015 9.08306 20.2466 9.23086C20.3916 9.37866 20.4731 9.57912 20.4731 9.78814C20.4735 11.1284 20.214 12.4555 19.7096 13.6933C19.2052 14.9311 18.4657 16.0552 17.5337 17.001C15.645 18.9214 13.0856 20 10.4173 20C7.7489 20 5.18952 18.9214 3.30079 17.001C2.62409 16.3075 2.04701 15.52 1.58665 14.6619C1.53237 14.5714 1.49658 14.4707 1.48141 14.3658C1.46624 14.2608 1.472 14.1539 1.49835 14.0513C1.52471 13.9487 1.57111 13.8526 1.63478 13.7687C1.69846 13.6848 1.77809 13.6149 1.86891 13.5631C1.95974 13.5113 2.05989 13.4788 2.16336 13.4673C2.26683 13.4559 2.37151 13.4659 2.47111 13.4967C2.57071 13.5274 2.6632 13.5784 2.74302 13.6464C2.82285 13.7144 2.88838 13.7982 2.93568 13.8927C3.32834 14.6233 3.81997 15.294 4.39611 15.885C5.99645 17.5078 8.16246 18.4189 10.4204 18.4189C12.6783 18.4189 14.8443 17.5078 16.4446 15.885C17.2305 15.0846 17.8537 14.1341 18.2785 13.0879C18.7032 12.0416 18.9212 10.9203 18.9199 9.78814C18.9199 9.68411 18.9401 9.58111 18.9794 9.48508C19.0186 9.38905 19.0762 9.30188 19.1486 9.22862C19.2211 9.15535 19.3071 9.09743 19.4017 9.0582C19.4963 9.01896 19.5975 8.99919 19.6996 9.00003Z" fill="#5F5F5F"/>
<path fill-rule="evenodd" clip-rule="evenodd" d="M16.5652 4.16412C15.3824 2.94281 13.8773 2.10814 12.2378 1.76429C10.5982 1.42045 8.89689 1.58266 7.34612 2.23069C5.79536 2.87871 4.46386 3.98384 3.51785 5.40812C2.57184 6.8324 2.05322 8.51273 2.02674 10.2394C2.01868 10.4484 1.93086 10.6456 1.78244 10.788C1.63402 10.9304 1.43706 11.0065 1.23452 10.9996C1.13292 10.9979 1.03263 10.9756 0.93938 10.9339C0.846133 10.8922 0.761753 10.832 0.69106 10.7567C0.620367 10.6813 0.564745 10.5924 0.527372 10.4948C0.489999 10.3973 0.471607 10.2931 0.473245 10.1883C0.522896 7.50003 1.57867 4.93597 3.41931 3.03339C5.30993 1.09068 7.86911 0 10.5369 0C13.2047 0 15.7639 1.09068 17.6545 3.03339C18.3332 3.73595 18.9124 4.53383 19.3751 5.40344C19.4247 5.4953 19.4562 5.59634 19.468 5.7008C19.4797 5.80525 19.4714 5.91107 19.4435 6.01221C19.4157 6.11335 19.3688 6.20784 19.3055 6.29027C19.2423 6.3727 19.1639 6.44147 19.0749 6.49264C18.9859 6.54381 18.888 6.57639 18.7868 6.58852C18.6856 6.60064 18.5831 6.59208 18.4851 6.56331C18.3871 6.53454 18.2956 6.48613 18.2157 6.42084C18.1358 6.35555 18.0692 6.27467 18.0196 6.18281C17.6312 5.44132 17.1414 4.76144 16.5652 4.16412Z" fill="#5F5F5F"/>
<path fill-rule="evenodd" clip-rule="evenodd" d="M19.7502 1.91417C19.9277 1.95263 20.0825 2.06023 20.1807 2.21331C20.2789 2.36638 20.3123 2.55239 20.2737 2.73041L19.5021 6.29059C19.4599 6.4649 19.3514 6.61584 19.1999 6.71115C19.0483 6.80647 18.8657 6.83861 18.691 6.80069L15.1426 6.03154C14.9651 5.99308 14.8103 5.88548 14.7121 5.7324C14.6139 5.57933 14.5804 5.39332 14.619 5.2153C14.6576 5.03728 14.7651 4.88183 14.9179 4.78314C15.0706 4.68446 15.2561 4.65063 15.4335 4.68909L18.313 5.31323L18.9392 2.42427C18.9814 2.24997 19.0898 2.09903 19.2414 2.00371C19.3929 1.90839 19.5755 1.87625 19.7502 1.91417Z" fill="#5F5F5F"/>
<path fill-rule="evenodd" clip-rule="evenodd" d="M0.919892 13.1696C0.964247 12.9984 1.07318 12.8509 1.22385 12.7582C1.37453 12.6655 1.55524 12.6347 1.72811 12.6723L5.27662 13.4414C5.45406 13.4798 5.60895 13.5872 5.70723 13.7398C5.8055 13.8925 5.83911 14.0779 5.80066 14.2554C5.7622 14.4328 5.65484 14.5877 5.50218 14.686C5.34952 14.7843 5.16408 14.8179 4.98664 14.7794L2.10715 14.1554L1.48312 17.0349C1.44467 17.2123 1.3373 17.3672 1.18464 17.4655C1.03199 17.5637 0.846542 17.5974 0.669105 17.5589C0.491668 17.5204 0.336775 17.4131 0.238499 17.2604C0.140223 17.1078 0.106615 16.9223 0.145069 16.7449L0.919892 13.1696Z" fill="#5F5F5F"/>
</svg>
