<svg width="20" height="18" viewBox="0 0 20 18" fill="none" xmlns="http://www.w3.org/2000/svg">
<path d="M3 9L3 1M3 9C1.89543 9 1 9.89543 1 11C1 12.1046 1.89543 13 3 13M3 9C4.10457 9 5 9.89543 5 11C5 12.1046 4.10457 13 3 13M17 17L17 15M3 17L3 13M17 9L17 1M10 4V1M10 4C8.89543 4 8 4.89543 8 6C8 7.10457 8.89543 8 10 8C11.1046 8 12 7.10457 12 6C12 4.89543 11.1046 4 10 4ZM10 17L10 9M19 12C19 13.1046 18.1046 14 17 14C15.8954 14 15 13.1046 15 12C15 10.8954 15.8954 10 17 10C18.1046 10 19 10.8954 19 12Z" stroke="#5F5F5F" stroke-width="1.5" stroke-linecap="round"/>
</svg>
